<svg width="150" height="80" viewBox="0 0 150 80" fill="none" xmlns="http://www.w3.org/2000/svg">
<path id="Vector" d="M5.44906 79.3991H26.3405C27.7698 79.3874 29.1361 78.8104 30.1396 77.7947C31.1431 76.779 31.702 75.4076 31.6935 73.9813C31.7012 73.2808 31.5643 72.5862 31.2912 71.9408C31.018 71.2954 30.6146 70.713 30.106 70.2301C29.6176 69.7279 29.0319 69.3302 28.3845 69.0611C27.7372 68.7921 27.0417 68.6573 26.3405 68.6649H12.7642C12.5023 68.6767 12.2408 68.6343 11.9961 68.5405C11.7513 68.4468 11.5286 68.3036 11.3418 68.12C11.1654 67.9519 11.0257 67.7491 10.9317 67.5244C10.8377 67.2998 10.7914 67.0581 10.7957 66.8147V5.31186C10.8013 4.6135 10.6634 3.92142 10.3903 3.27838C10.1173 2.63534 9.71495 2.05502 9.20825 1.57328C8.72087 1.07108 8.13638 0.672839 7.49021 0.402715C6.84403 0.132591 6.14962 -0.00379742 5.44906 0.00181087C4.74148 -0.000198138 4.04051 0.137634 3.38659 0.407351C2.73267 0.677069 2.13874 1.07333 1.63907 1.57328C1.11885 2.0472 0.704201 2.62489 0.421978 3.26892C0.139755 3.91295 -0.00374336 4.60896 0.000779316 5.31186V73.9813C-0.0117803 74.7012 0.127595 75.4157 0.409847 76.0784C0.692099 76.7411 1.11091 77.337 1.63907 77.8276C2.13874 78.3276 2.73267 78.7238 3.38659 78.9935C4.04051 79.2633 4.74148 79.4011 5.44906 79.3991ZM49.2639 5.31186C49.2695 4.6135 49.1315 3.92142 48.8585 3.27838C48.5854 2.63534 48.1831 2.05502 47.6764 1.57328C47.1833 1.07516 46.5959 0.679671 45.9484 0.409749C45.301 0.139827 44.6062 0.000839155 43.9045 0.000839155C43.2028 0.000839155 42.5081 0.139827 41.8606 0.409749C41.2132 0.679671 40.6258 1.07516 40.1326 1.57328C39.6241 2.05362 39.2206 2.63367 38.9474 3.27704C38.6742 3.9204 38.5373 4.61317 38.5451 5.31186V73.9813C38.5304 74.6969 38.6637 75.4079 38.9369 76.0697C39.21 76.7315 39.6171 77.33 40.1326 77.8276C40.6258 78.3257 41.2132 78.7212 41.8606 78.9911C42.5081 79.2611 43.2028 79.4001 43.9045 79.4001C44.6062 79.4001 45.301 79.2611 45.9484 78.9911C46.5959 78.7212 47.1833 78.3257 47.6764 77.8276C48.1907 77.329 48.597 76.7304 48.87 76.0688C49.1431 75.4072 49.2772 74.6967 49.2639 73.9813V5.31186ZM94.2027 47.8366C93.4725 46.8164 92.6851 45.7899 91.8532 44.7444C90.9131 43.5842 89.9082 42.4777 88.8433 41.4303C87.7857 40.3194 86.6731 39.262 85.5096 38.262C84.3793 37.2862 83.3442 36.3991 82.3917 35.6007C80.2073 33.7251 78.3849 32.0797 76.9244 30.6645C75.6399 29.4556 74.4687 28.1321 73.4256 26.7105C72.4609 25.4946 71.6859 24.1401 71.1269 22.6931C70.6102 21.573 70.3499 20.3522 70.3649 19.1193C70.3499 18.0016 70.5661 16.8928 70.9999 15.8623C71.6401 14.3627 72.7035 13.0814 74.0606 12.1744C75.4313 11.1893 77.0768 10.6575 78.7659 10.6536C79.8921 10.6391 81.0093 10.8548 82.0488 11.2872C83.5703 11.9399 84.8867 12.9909 85.8588 14.3288C86.8076 15.7405 87.33 17.3945 87.3638 19.0939C87.3559 19.7926 87.4928 20.4854 87.766 21.1287C88.0392 21.7721 88.4427 22.3521 88.9513 22.8325C89.4444 23.3306 90.0318 23.7261 90.6792 23.996C91.3267 24.2659 92.0214 24.4049 92.7232 24.4049C93.4249 24.4049 94.1196 24.2659 94.7671 23.996C95.4145 23.7261 96.0019 23.3306 96.495 22.8325C97.0024 22.3516 97.4048 21.7713 97.6768 21.128C97.9489 20.4846 98.0849 19.7921 98.0762 19.0939C98.1012 16.5288 97.6201 13.9838 96.6601 11.6041C95.1402 8.23738 92.7243 5.351 89.6752 3.25881C86.4747 1.08541 82.6812 -0.0517836 78.8103 0.00181087C76.2521 -0.0257975 73.7173 0.490462 71.3745 1.51625C67.9455 2.95205 64.9903 5.32132 62.8465 8.35342C61.828 9.93224 61.0191 11.6362 60.4399 13.4227C59.8523 15.2448 59.5565 17.1481 59.5636 19.0622C59.5905 21.6703 60.1096 24.2499 61.0939 26.6661C62.5429 30.0936 64.6211 33.2205 67.2216 35.8858C68.458 37.3275 69.7903 38.6845 71.2094 39.9476L75.4195 43.6925C77.3415 45.2636 79.1832 46.9301 80.9376 48.6857C82.2039 49.949 83.3915 51.2885 84.4936 52.6968C85.4113 53.8828 86.1475 55.1983 86.678 56.6001C87.2 57.7209 87.4626 58.9445 87.4463 60.1803C87.4535 61.3321 87.2379 62.4746 86.8113 63.545C86.1296 65.0188 85.0747 66.2899 83.7506 67.2329C82.3657 68.1717 80.7258 68.6648 79.0517 68.6459C77.889 68.6542 76.7356 68.439 75.6544 68.0123C74.1727 67.3429 72.8937 66.2961 71.946 64.977C71.033 63.5906 70.5372 61.9722 70.5173 60.3133C70.5314 59.5969 70.3978 58.8852 70.1247 58.2224C69.8516 57.5596 69.4449 56.96 68.9298 56.4607C68.4366 55.9626 67.8493 55.5671 67.2018 55.2972C66.5543 55.0272 65.8596 54.8882 65.1579 54.8882C64.4562 54.8882 63.7615 55.0272 63.114 55.2972C62.4665 55.5671 61.8792 55.9626 61.386 56.4607C60.873 56.9612 60.468 57.5612 60.1961 58.2238C59.9242 58.8864 59.7911 59.5975 59.8049 60.3133C59.7895 62.8427 60.2706 65.3505 61.2209 67.6954C62.6932 71.0917 65.1191 73.9901 68.2059 76.0407C71.3711 78.2442 75.1416 79.4172 79.0009 79.3991C81.555 79.3854 84.0815 78.8708 86.4367 77.8846C89.8268 76.3721 92.7368 73.9614 94.8504 70.9144C97.0658 67.8102 98.2535 64.0926 98.2476 60.2816C98.2182 57.6739 97.6991 55.0947 96.7173 52.6778C96.1003 50.9637 95.2636 49.3364 94.2281 47.8366H94.2027ZM150 20.9125C150.005 18.1198 149.446 15.3546 148.355 12.7827C147.564 10.9154 146.493 9.17852 145.18 7.63105C143.876 6.08744 142.371 4.72557 140.704 3.58198C137.247 1.25289 133.172 0.00630172 129.001 0.00181087C126.185 -0.016723 123.396 0.537383 120.803 1.63031C117.036 3.2174 113.809 5.85821 111.513 9.2342C109.12 12.6568 107.857 16.7394 107.9 20.9125V74.0637C107.89 74.763 108.026 75.4567 108.298 76.1012C108.57 76.7457 108.973 77.327 109.481 77.8086C109.976 78.3046 110.564 78.6982 111.212 78.9668C111.86 79.2353 112.554 79.3736 113.256 79.3736C113.957 79.3736 114.652 79.2353 115.3 78.9668C115.948 78.6982 116.536 78.3046 117.031 77.8086C117.539 77.327 117.942 76.7457 118.214 76.1012C118.486 75.4567 118.622 74.763 118.612 74.0637V20.9125C118.629 19.5321 118.927 18.1697 119.488 16.9078C120.246 15.085 121.545 13.5372 123.209 12.4722C124.917 11.3218 126.941 10.7285 129.001 10.774C129.679 10.7744 130.356 10.8274 131.026 10.9324C131.687 11.0389 132.328 11.2395 132.931 11.528C134.81 12.2487 136.417 13.5355 137.529 15.2096C138.639 16.908 139.247 18.8848 139.281 20.9125V74.0637C139.281 75.4821 139.846 76.8424 140.851 77.8453C141.856 78.8483 143.219 79.4118 144.641 79.4118C146.062 79.4118 147.425 78.8483 148.43 77.8453C149.435 76.8424 150 75.4821 150 74.0637V20.9125Z" fill="white"/>
</svg>
